<svg xmlns="http://www.w3.org/2000/svg" width="805" height="600"><rect width="805" height="600" x="0" y="0" fill="#FFFFFF" id="background"/><g transform="translate(20,20)" id="viz"><g id="nodes"><g transform="translate(383.5,281)"><path id="p_943.5" d="M-5.143516556418883e-14,280A280,280,0,1,1,5.143516556418883e-14,-280A280,280,0,1,1,-5.143516556418883e-14,280Z" fill="none" stroke="#ccc"/></g><g transform="translate(359.4554363396396,267.0304111500417)" id="1926-05-04T00:00:00Z"><path id="p_657.2065438514514" d="M-5.8269973899250376e-15,31.720696361770162A31.720696361770162,31.720696361770162,0,1,1,5.8269973899250376e-15,-31.720696361770162A31.720696361770162,31.720696361770162,0,1,1,-5.8269973899250376e-15,31.720696361770162Z" fill="#d0021b" stroke="none"/></g><g transform="translate(415.4980473566655,267.0304111500417)" id="1968-05-03T00:00:00Z"><path id="p_703.9583780080744" d="M-4.120309368372307e-15,22.429919501367127A22.429919501367127,22.429919501367127,0,1,1,4.120309368372307e-15,-22.429919501367127A22.429919501367127,22.429919501367127,0,1,1,-4.120309368372307e-15,22.429919501367127Z" fill="#d0021b" stroke="none"/></g><g transform="translate(395.9974034952978,309.52110290718383)" id="1935-01-30T00:00:00Z"><path id="p_726.9484259038488" d="M-4.120309368372307e-15,22.429919501367127A22.429919501367127,22.429919501367127,0,1,1,4.120309368372307e-15,-22.429919501367127A22.429919501367127,22.429919501367127,0,1,1,-4.120309368372307e-15,22.429919501367127Z" fill="#d0021b" stroke="none"/></g><g transform="translate(395.9974034952978,224.5397193928996)" id="1941-08-05T00:00:00Z"><path id="p_641.9670423895647" d="M-4.120309368372307e-15,22.429919501367127A22.429919501367127,22.429919501367127,0,1,1,4.120309368372307e-15,-22.429919501367127A22.429919501367127,22.429919501367127,0,1,1,-4.120309368372307e-15,22.429919501367127Z" fill="#d0021b" stroke="none"/></g><g transform="translate(351.0663996073497,211.619236173238)" id="1932-12-30T00:00:00Z"><path id="p_584.1155552819549" d="M-4.120309368372307e-15,22.429919501367127A22.429919501367127,22.429919501367127,0,1,1,4.120309368372307e-15,-22.429919501367127A22.429919501367127,22.429919501367127,0,1,1,-4.120309368372307e-15,22.429919501367127Z" fill="#d0021b" stroke="none"/></g><g transform="translate(351.0663996073497,322.44158612684544)" id="1957-09-13T00:00:00Z"><path id="p_694.9379052355623" d="M-4.120309368372307e-15,22.429919501367127A22.429919501367127,22.429919501367127,0,1,1,4.120309368372307e-15,-22.429919501367127A22.429919501367127,22.429919501367127,0,1,1,-4.120309368372307e-15,22.429919501367127Z" fill="#d0021b" stroke="none"/></g><g transform="translate(442.5457439120408,228.89701229737318)" id="1965-08-10T00:00:00Z"><path id="p_692.8726757107812" d="M-4.120309368372307e-15,22.429919501367127A22.429919501367127,22.429919501367127,0,1,1,4.120309368372307e-15,-22.429919501367127A22.429919501367127,22.429919501367127,0,1,1,-4.120309368372307e-15,22.429919501367127Z" fill="#d0021b" stroke="none"/></g><g transform="translate(442.5457439120408,305.16381000271025)" id="1951-09-28T00:00:00Z"><path id="p_769.1394734161182" d="M-4.120309368372307e-15,22.429919501367127A22.429919501367127,22.429919501367127,0,1,1,4.120309368372307e-15,-22.429919501367127A22.429919501367127,22.429919501367127,0,1,1,-4.120309368372307e-15,22.429919501367127Z" fill="#d0021b" stroke="none"/></g><g transform="translate(311.97351120644123,296.8002118757941)" id="1946-03-13T00:00:00Z"><path id="p_630.2036425836026" d="M-4.120309368372307e-15,22.429919501367127A22.429919501367127,22.429919501367127,0,1,1,4.120309368372307e-15,-22.429919501367127A22.429919501367127,22.429919501367127,0,1,1,-4.120309368372307e-15,22.429919501367127Z" fill="#d0021b" stroke="none"/></g><g transform="translate(311.97351120644123,237.26061042428933)" id="1932-06-19T00:00:00Z"><path id="p_570.6640411320977" d="M-4.120309368372307e-15,22.429919501367127A22.429919501367127,22.429919501367127,0,1,1,4.120309368372307e-15,-22.429919501367127A22.429919501367127,22.429919501367127,0,1,1,-4.120309368372307e-15,22.429919501367127Z" fill="#d0021b" stroke="none"/></g><g transform="translate(384.72136824872126,179.16808699856838)" id="1964-12-01T00:00:00Z"><path id="p_585.3193747486569" d="M-4.120309368372307e-15,22.429919501367127A22.429919501367127,22.429919501367127,0,1,1,4.120309368372307e-15,-22.429919501367127A22.429919501367127,22.429919501367127,0,1,1,-4.120309368372307e-15,22.429919501367127Z" fill="#d0021b" stroke="none"/></g><g transform="translate(384.72136824872126,354.892735301515)" id="1933-03-26T00:00:00Z"><path id="p_761.0440230516034" d="M-4.120309368372307e-15,22.429919501367127A22.429919501367127,22.429919501367127,0,1,1,4.120309368372307e-15,-22.429919501367127A22.429919501367127,22.429919501367127,0,1,1,-4.120309368372307e-15,22.429919501367127Z" fill="#d0021b" stroke="none"/></g><g transform="translate(469.5934404674161,267.0304111500417)" id="1900-05-24T00:00:00Z"><path id="p_758.053771118825" d="M-4.120309368372307e-15,22.429919501367127A22.429919501367127,22.429919501367127,0,1,1,4.120309368372307e-15,-22.429919501367127A22.429919501367127,22.429919501367127,0,1,1,-4.120309368372307e-15,22.429919501367127Z" fill="#d0021b" stroke="none"/></g><g transform="translate(275.9250304928612,267.0304111500417)" id="1900-05-26T00:00:00Z"><path id="p_564.3853611442701" d="M-4.120309368372307e-15,22.429919501367127A22.429919501367127,22.429919501367127,0,1,1,4.120309368372307e-15,-22.429919501367127A22.429919501367127,22.429919501367127,0,1,1,-4.120309368372307e-15,22.429919501367127Z" fill="#d0021b" stroke="none"/></g><g transform="translate(431.2697086654642,183.525379903042)" id="1919-07-14T00:00:00Z"><path id="p_636.2250080698733" d="M-4.120309368372307e-15,22.429919501367127A22.429919501367127,22.429919501367127,0,1,1,4.120309368372307e-15,-22.429919501367127A22.429919501367127,22.429919501367127,0,1,1,-4.120309368372307e-15,22.429919501367127Z" fill="#d0021b" stroke="none"/></g><g transform="translate(431.2697086654642,350.53544239704144)" id="1956-08-07T00:00:00Z"><path id="p_803.2350705638728" d="M-4.120309368372307e-15,22.429919501367127A22.429919501367127,22.429919501367127,0,1,1,4.120309368372307e-15,-22.429919501367127A22.429919501367127,22.429919501367127,0,1,1,-4.120309368372307e-15,22.429919501367127Z" fill="#d0021b" stroke="none"/></g><g transform="translate(309.3138739175409,343.47633346381656)" id="1945-07-23T00:00:00Z"><path id="p_674.2201268827247" d="M-4.120309368372307e-15,22.429919501367127A22.429919501367127,22.429919501367127,0,1,1,4.120309368372307e-15,-22.429919501367127A22.429919501367127,22.429919501367127,0,1,1,-4.120309368372307e-15,22.429919501367127Z" fill="#d0021b" stroke="none"/></g><g transform="translate(309.3138739175409,190.58448883626687)" id="1981-05-19T00:00:00Z"><path id="p_521.3282822551749" d="M-4.120309368372307e-15,22.429919501367127A22.429919501367127,22.429919501367127,0,1,1,4.120309368372307e-15,-22.429919501367127A22.429919501367127,22.429919501367127,0,1,1,-4.120309368372307e-15,22.429919501367127Z" fill="#d0021b" stroke="none"/></g><g transform="translate(342.9688425589124,158.13333966159726)" id="1929-07-18T00:00:00Z"><path id="p_522.5321017218769" d="M-4.120309368372307e-15,22.429919501367127A22.429919501367127,22.429919501367127,0,1,1,4.120309368372307e-15,-22.429919501367127A22.429919501367127,22.429919501367127,0,1,1,-4.120309368372307e-15,22.429919501367127Z" fill="#d0021b" stroke="none"/></g><g transform="translate(342.9688425589124,375.92748263848614)" id="1955-11-19T00:00:00Z"><path id="p_740.3262446987657" d="M-4.120309368372307e-15,22.429919501367127A22.429919501367127,22.429919501367127,0,1,1,4.120309368372307e-15,-22.429919501367127A22.429919501367127,22.429919501367127,0,1,1,-4.120309368372307e-15,22.429919501367127Z" fill="#d0021b" stroke="none"/></g><g transform="translate(489.0940843287837,224.5397193928996)" id="1872-03-22T00:00:00Z"><path id="p_735.0637232230505" d="M-4.120309368372307e-15,22.429919501367127A22.429919501367127,22.429919501367127,0,1,1,4.120309368372307e-15,-22.429919501367127A22.429919501367127,22.429919501367127,0,1,1,-4.120309368372307e-15,22.429919501367127Z" fill="#d0021b" stroke="none"/></g><g transform="translate(489.0940843287837,309.52110290718383)" id="1874-10-25T00:00:00Z"><path id="p_820.0451067373348" d="M-4.120309368372307e-15,22.429919501367127A22.429919501367127,22.429919501367127,0,1,1,4.120309368372307e-15,-22.429919501367127A22.429919501367127,22.429919501367127,0,1,1,-4.120309368372307e-15,22.429919501367127Z" fill="#d0021b" stroke="none"/></g><g transform="translate(477.81804908220715,179.16808699856838)" id="1981-12-09T00:00:00Z"><path id="p_678.4160555821427" d="M-4.120309368372307e-15,22.429919501367127A22.429919501367127,22.429919501367127,0,1,1,4.120309368372307e-15,-22.429919501367127A22.429919501367127,22.429919501367127,0,1,1,-4.120309368372307e-15,22.429919501367127Z" fill="#d0021b" stroke="none"/></g><g transform="translate(477.81804908220715,354.892735301515)" id="1953-10-27T00:00:00Z"><path id="p_854.1407038850894" d="M-4.120309368372307e-15,22.429919501367127A22.429919501367127,22.429919501367127,0,1,1,4.120309368372307e-15,-22.429919501367127A22.429919501367127,22.429919501367127,0,1,1,-4.120309368372307e-15,22.429919501367127Z" fill="#d0021b" stroke="none"/></g><g transform="translate(411.7690648040965,393.0261341541836)" id="1964-11-30T00:00:00Z"><path id="p_826.2251184596472" d="M-4.120309368372307e-15,22.429919501367127A22.429919501367127,22.429919501367127,0,1,1,4.120309368372307e-15,-22.429919501367127A22.429919501367127,22.429919501367127,0,1,1,-4.120309368372307e-15,22.429919501367127Z" fill="#d0021b" stroke="none"/></g><g transform="translate(411.76906480409656,141.03468814589985)" id="1948-07-21T00:00:00Z"><path id="p_574.2336724513635" d="M-4.120309368372307e-15,22.429919501367127A22.429919501367127,22.429919501367127,0,1,1,4.120309368372307e-15,-22.429919501367127A22.429919501367127,22.429919501367127,0,1,1,-4.120309368372307e-15,22.429919501367127Z" fill="#d0021b" stroke="none"/></g><g transform="translate(270.22098551663237,317.8349592127652)" id="1930-02-22T00:00:00Z"><path id="p_609.4858642307648" d="M-4.120309368372307e-15,22.429919501367127A22.429919501367127,22.429919501367127,0,1,1,4.120309368372307e-15,-22.429919501367127A22.429919501367127,22.429919501367127,0,1,1,-4.120309368372307e-15,22.429919501367127Z" fill="#d0021b" stroke="none"/></g><g transform="translate(270.22098551663237,216.22586308731817)" id="1923-02-12T00:00:00Z"><path id="p_507.8767681053177" d="M-4.120309368372307e-15,22.429919501367127A22.429919501367127,22.429919501367127,0,1,1,4.120309368372307e-15,-22.429919501367127A22.429919501367127,22.429919501367127,0,1,1,-4.120309368372307e-15,22.429919501367127Z" fill="#d0021b" stroke="none"/></g><g transform="translate(234.1725048030523,245.9956638130706)" id="1964-05-04T00:00:00Z"><path id="p_501.59808811749" d="M-4.120309368372307e-15,22.429919501367127A22.429919501367127,22.429919501367127,0,1,1,4.120309368372307e-15,-22.429919501367127A22.429919501367127,22.429919501367127,0,1,1,-4.120309368372307e-15,22.429919501367127Z" fill="#d0021b" stroke="none"/></g><g transform="translate(230.84594771947533,292.6289996896521)" id="1964-09-30T00:00:00Z"><path id="p_544.9048669104947" d="M-4.120309368372307e-15,22.429919501367127A22.429919501367127,22.429919501367127,0,1,1,4.120309368372307e-15,-22.429919501367127A22.429919501367127,22.429919501367127,0,1,1,-4.120309368372307e-15,22.429919501367127Z" fill="#d0021b" stroke="none"/></g><g transform="translate(516.1417808841591,262.6731182455681)" id="1943-09-21T00:00:00Z"><path id="p_800.2448186310943" d="M-4.120309368372307e-15,22.429919501367127A22.429919501367127,22.429919501367127,0,1,1,4.120309368372307e-15,-22.429919501367127A22.429919501367127,22.429919501367127,0,1,1,-4.120309368372307e-15,22.429919501367127Z" fill="#d0021b" stroke="none"/></g><g transform="translate(535.6424247455267,305.16381000271025)" id="1928-01-09T00:00:00Z"><path id="p_862.236154249604" d="M-4.120309368372307e-15,22.429919501367127A22.429919501367127,22.429919501367127,0,1,1,4.120309368372307e-15,-22.429919501367127A22.429919501367127,22.429919501367127,0,1,1,-4.120309368372307e-15,22.429919501367127Z" fill="#d0021b" stroke="none"/></g><g transform="translate(370.0165391142877,414.0608814911547)" id="1929-10-31T00:00:00Z"><path id="p_805.5073401068096" d="M-4.120309368372307e-15,22.429919501367127A22.429919501367127,22.429919501367127,0,1,1,4.120309368372307e-15,-22.429919501367127A22.429919501367127,22.429919501367127,0,1,1,-4.120309368372307e-15,22.429919501367127Z" fill="#d0021b" stroke="none"/></g><g transform="translate(370.0165391142877,119.99994080892873)" id="1968-03-15T00:00:00Z"><path id="p_511.44639942458355" d="M-4.120309368372307e-15,22.429919501367127A22.429919501367127,22.429919501367127,0,1,1,4.120309368372307e-15,-22.429919501367127A22.429919501367127,22.429919501367127,0,1,1,-4.120309368372307e-15,22.429919501367127Z" fill="#d0021b" stroke="none"/></g><g transform="translate(298.03783867096433,388.84796585814775)" id="1940-01-18T00:00:00Z"><path id="p_708.3157240304793" d="M-4.120309368372307e-15,22.429919501367127A22.429919501367127,22.429919501367127,0,1,1,4.120309368372307e-15,-22.429919501367127A22.429919501367127,22.429919501367127,0,1,1,-4.120309368372307e-15,22.429919501367127Z" fill="#d0021b" stroke="none"/></g><g transform="translate(298.0378386709643,145.21285644193568)" id="1964-02-10T00:00:00Z"><path id="p_464.6806146142671" d="M-4.120309368372307e-15,22.429919501367127A22.429919501367127,22.429919501367127,0,1,1,4.120309368372307e-15,-22.429919501367127A22.429919501367127,22.429919501367127,0,1,1,-4.120309368372307e-15,22.429919501367127Z" fill="#d0021b" stroke="none"/></g><g transform="translate(458.3174052208395,136.67739524142624)" id="1939-07-17T00:00:00Z"><path id="p_616.4247199636329" d="M-4.120309368372307e-15,22.429919501367127A22.429919501367127,22.429919501367127,0,1,1,4.120309368372307e-15,-22.429919501367127A22.429919501367127,22.429919501367127,0,1,1,-4.120309368372307e-15,22.429919501367127Z" fill="#d0021b" stroke="none"/></g><g transform="translate(458.3174052208395,397.38342705865716)" id="1939-03-29T00:00:00Z"><path id="p_877.1307517808638" d="M-4.120309368372307e-15,22.429919501367127A22.429919501367127,22.429919501367127,0,1,1,4.120309368372307e-15,-22.429919501367127A22.429919501367127,22.429919501367127,0,1,1,-4.120309368372307e-15,22.429919501367127Z" fill="#d0021b" stroke="none"/></g><g transform="translate(258.9449502700558,363.2065916070964)" id="1960-04-19T00:00:00Z"><path id="p_643.5814613785194" d="M-4.120309368372307e-15,22.429919501367127A22.429919501367127,22.429919501367127,0,1,1,4.120309368372307e-15,-22.429919501367127A22.429919501367127,22.429919501367127,0,1,1,-4.120309368372307e-15,22.429919501367127Z" fill="#d0021b" stroke="none"/></g><g transform="translate(258.94495027005576,170.854230692987)" id="1965-06-24T00:00:00Z"><path id="p_451.2291004644099" d="M-4.120309368372307e-15,22.429919501367127A22.429919501367127,22.429919501367127,0,1,1,4.120309368372307e-15,-22.429919501367127A22.429919501367127,22.429919501367127,0,1,1,-4.120309368372307e-15,22.429919501367127Z" fill="#d0021b" stroke="none"/></g><g transform="translate(522.7490529701553,192.08857021822996)" id="1945-08-23T00:00:00Z"><path id="p_736.2675426897524" d="M-4.120309368372307e-15,22.429919501367127A22.429919501367127,22.429919501367127,0,1,1,4.120309368372307e-15,-22.429919501367127A22.429919501367127,22.429919501367127,0,1,1,-4.120309368372307e-15,22.429919501367127Z" fill="#d0021b" stroke="none"/></g><g transform="translate(524.3663894989501,350.53544239704144)" id="1943-06-18T00:00:00Z"><path id="p_896.3317513973587" d="M-4.120309368372307e-15,22.429919501367127A22.429919501367127,22.429919501367127,0,1,1,4.120309368372307e-15,-22.429919501367127A22.429919501367127,22.429919501367127,0,1,1,-4.120309368372307e-15,22.429919501367127Z" fill="#d0021b" stroke="none"/></g><g transform="translate(549.7967495255306,230.22196907089847)" id="1957-01-01T00:00:00Z"><path id="p_801.4486380977962" d="M-4.120309368372307e-15,22.429919501367127A22.429919501367127,22.429919501367127,0,1,1,4.120309368372307e-15,-22.429919501367127A22.429919501367127,22.429919501367127,0,1,1,-4.120309368372307e-15,22.429919501367127Z" fill="#d0021b" stroke="none"/></g><g transform="translate(325.0855352263396,426.98136471081625)" id="1963-06-01T00:00:00Z"><path id="p_773.496819438523" d="M-4.120309368372307e-15,22.429919501367127A22.429919501367127,22.429919501367127,0,1,1,4.120309368372307e-15,-22.429919501367127A22.429919501367127,22.429919501367127,0,1,1,-4.120309368372307e-15,22.429919501367127Z" fill="#d0021b" stroke="none"/></g><g transform="translate(325.08553522633963,107.07945758926715)" id="1960-06-05T00:00:00Z"><path id="p_453.5949123169739" d="M-4.120309368372307e-15,22.429919501367127A22.429919501367127,22.429919501367127,0,1,1,4.120309368372307e-15,-22.429919501367127A22.429919501367127,22.429919501367127,0,1,1,-4.120309368372307e-15,22.429919501367127Z" fill="#d0021b" stroke="none"/></g><g transform="translate(222.8964695564757,200.62403141873938)" id="1939-03-30T00:00:00Z"><path id="p_444.9504204765822" d="M-4.120309368372307e-15,22.429919501367127A22.429919501367127,22.429919501367127,0,1,1,4.120309368372307e-15,-22.429919501367127A22.429919501367127,22.429919501367127,0,1,1,-4.120309368372307e-15,22.429919501367127Z" fill="#d0021b" stroke="none"/></g><g transform="translate(409.10942751519616,94.3585665578774)" id="1967-09-28T00:00:00Z"><path id="p_524.8979135744407" d="M-4.120309368372307e-15,22.429919501367127A22.429919501367127,22.429919501367127,0,1,1,4.120309368372307e-15,-22.429919501367127A22.429919501367127,22.429919501367127,0,1,1,-4.120309368372307e-15,22.429919501367127Z" fill="#d0021b" stroke="none"/></g><g transform="translate(409.10942751519616,439.702255742206)" id="1957-01-12T00:00:00Z"><path id="p_870.2416027587693" d="M-4.120309368372307e-15,22.429919501367127A22.429919501367127,22.429919501367127,0,1,1,4.120309368372307e-15,-22.429919501367127A22.429919501367127,22.429919501367127,0,1,1,-4.120309368372307e-15,22.429919501367127Z" fill="#d0021b" stroke="none"/></g><g transform="translate(219.56991247289878,338.0006320839833)" id="1981-06-09T00:00:00Z"><path id="p_579.0004640582492" d="M-4.120309368372307e-15,22.429919501367127A22.429919501367127,22.429919501367127,0,1,1,4.120309368372307e-15,-22.429919501367127A22.429919501367127,22.429919501367127,0,1,1,-4.120309368372307e-15,22.429919501367127Z" fill="#d0021b" stroke="none"/></g><g transform="translate(455.65776793193913,90.00127365340384)" id="1963-11-05T00:00:00Z"><path id="p_567.0889610867101" d="M-4.120309368372307e-15,22.429919501367127A22.429919501367127,22.429919501367127,0,1,1,4.120309368372307e-15,-22.429919501367127A22.429919501367127,22.429919501367127,0,1,1,-4.120309368372307e-15,22.429919501367127Z" fill="#d0021b" stroke="none"/></g><g transform="translate(455.65776793193913,444.05954864667956)" id="1934-03-11T00:00:00Z"><path id="p_921.1472360799859" d="M-4.120309368372307e-15,22.429919501367127A22.429919501367127,22.429919501367127,0,1,1,4.120309368372307e-15,-22.429919501367127A22.429919501367127,22.429919501367127,0,1,1,-4.120309368372307e-15,22.429919501367127Z" fill="#d0021b" stroke="none"/></g><g transform="translate(504.86574563758245,141.03468814589985)" id="1962-09-06T00:00:00Z"><path id="p_667.3303532848495" d="M-4.120309368372307e-15,22.429919501367127A22.429919501367127,22.429919501367127,0,1,1,4.120309368372307e-15,-22.429919501367127A22.429919501367127,22.429919501367127,0,1,1,-4.120309368372307e-15,22.429919501367127Z" fill="#d0021b" stroke="none"/></g><g transform="translate(504.86574563758245,393.0261341541836)" id="1865-06-15T00:00:00Z"><path id="p_919.3217992931333" d="M-4.120309368372307e-15,22.429919501367127A22.429919501367127,22.429919501367127,0,1,1,4.120309368372307e-15,-22.429919501367127A22.429919501367127,22.429919501367127,0,1,1,-4.120309368372307e-15,22.429919501367127Z" fill="#d0021b" stroke="none"/></g><g transform="translate(549.7967495255306,153.95517136556143)" id="1977-06-26T00:00:00Z"><path id="p_725.1818403924592" d="M-4.120309368372307e-15,22.429919501367127A22.429919501367127,22.429919501367127,0,1,1,4.120309368372307e-15,-22.429919501367127A22.429919501367127,22.429919501367127,0,1,1,-4.120309368372307e-15,22.429919501367127Z" fill="#d0021b" stroke="none"/></g><g transform="translate(569.2973933868982,272.7126608280406)" id="1976-05-08T00:00:00Z"><path id="p_863.439973716306" d="M-4.120309368372307e-15,22.429919501367127A22.429919501367127,22.429919501367127,0,1,1,4.120309368372307e-15,-22.429919501367127A22.429919501367127,22.429919501367127,0,1,1,-4.120309368372307e-15,22.429919501367127Z" fill="#d0021b" stroke="none"/></g><g transform="translate(551.4140860543254,388.66884124971)" id="1922-06-19T00:00:00Z"><path id="p_961.5128468054025" d="M-4.120309368372307e-15,22.429919501367127A22.429919501367127,22.429919501367127,0,1,1,4.120309368372307e-15,-22.429919501367127A22.429919501367127,22.429919501367127,0,1,1,-4.120309368372307e-15,22.429919501367127Z" fill="#d0021b" stroke="none"/></g><g transform="translate(192.12357272893198,266.4314488098446)" id="1971-04-16T00:00:00Z"><path id="p_479.9849410401437" d="M-4.120309368372307e-15,22.429919501367127A22.429919501367127,22.429919501367127,0,1,1,4.120309368372307e-15,-22.429919501367127A22.429919501367127,22.429919501367127,0,1,1,-4.120309368372307e-15,22.429919501367127Z" fill="#d0021b" stroke="none"/></g><g transform="translate(256.28531298115547,409.88271319511887)" id="1943-03-07T00:00:00Z"><path id="p_687.5979456776415" d="M-4.120309368372307e-15,22.429919501367127A22.429919501367127,22.429919501367127,0,1,1,4.120309368372307e-15,-22.429919501367127A22.429919501367127,22.429919501367127,0,1,1,-4.120309368372307e-15,22.429919501367127Z" fill="#d0021b" stroke="none"/></g><g transform="translate(256.28531298115547,124.17810910496456)" id="1930-04-15T00:00:00Z"><path id="p_401.8933415874871" d="M-4.120309368372307e-15,22.429919501367127A22.429919501367127,22.429919501367127,0,1,1,4.120309368372307e-15,-22.429919501367127A22.429919501367127,22.429919501367127,0,1,1,-4.120309368372307e-15,22.429919501367127Z" fill="#d0021b" stroke="none"/></g><g transform="translate(358.74050386771114,74.62830841459751)" id="1989-04-28T00:00:00Z"><path id="p_454.7987317836758" d="M-4.120309368372307e-15,22.429919501367127A22.429919501367127,22.429919501367127,0,1,1,4.120309368372307e-15,-22.429919501367127A22.429919501367127,22.429919501367127,0,1,1,-4.120309368372307e-15,22.429919501367127Z" fill="#d0021b" stroke="none"/></g><g transform="translate(358.74050386771114,459.43251388548595)" id="1967-11-14T00:00:00Z"><path id="p_839.6029372545643" d="M-4.120309368372307e-15,22.429919501367127A22.429919501367127,22.429919501367127,0,1,1,4.120309368372307e-15,-22.429919501367127A22.429919501367127,22.429919501367127,0,1,1,-4.120309368372307e-15,22.429919501367127Z" fill="#d0021b" stroke="none"/></g><g transform="translate(283.33300953653077,448.0161120477874)" id="1929-01-11T00:00:00Z"><path id="p_752.7790410856853" d="M-4.120309368372307e-15,22.429919501367127A22.429919501367127,22.429919501367127,0,1,1,4.120309368372307e-15,-22.429919501367127A22.429919501367127,22.429919501367127,0,1,1,-4.120309368372307e-15,22.429919501367127Z" fill="#d0021b" stroke="none"/></g><g transform="translate(283.33300953653077,86.04471025229606)" id="1952-02-18T00:00:00Z"><path id="p_390.80763929019395" d="M-4.120309368372307e-15,22.429919501367127A22.429919501367127,22.429919501367127,0,1,1,4.120309368372307e-15,-22.429919501367127A22.429919501367127,22.429919501367127,0,1,1,-4.120309368372307e-15,22.429919501367127Z" fill="#d0021b" stroke="none"/></g><g transform="translate(569.2973933868982,337.6149591773799)" id="1926-10-25T00:00:00Z"><path id="p_928.3422720656453" d="M-4.120309368372307e-15,22.429919501367127A22.429919501367127,22.429919501367127,0,1,1,4.120309368372307e-15,-22.429919501367127A22.429919501367127,22.429919501367127,0,1,1,-4.120309368372307e-15,22.429919501367127Z" fill="#d0021b" stroke="none"/></g><g transform="translate(397.8333922686196,485.0738881365372)" id="1944-03-09T00:00:00Z"><path id="p_904.337199906524" d="M-4.120309368372307e-15,22.429919501367127A22.429919501367127,22.429919501367127,0,1,1,4.120309368372307e-15,-22.429919501367127A22.429919501367127,22.429919501367127,0,1,1,-4.120309368372307e-15,22.429919501367127Z" fill="#d0021b" stroke="none"/></g><g transform="translate(397.8333922686196,48.98693416354624)" id="1972-06-04T00:00:00Z"><path id="p_468.250245933533" d="M-4.120309368372307e-15,22.429919501367127A22.429919501367127,22.429919501367127,0,1,1,4.120309368372307e-15,-22.429919501367127A22.429919501367127,22.429919501367127,0,1,1,-4.120309368372307e-15,22.429919501367127Z" fill="#d0021b" stroke="none"/></g><g transform="translate(180.84753748235536,221.0598164155134)" id="1968-03-29T00:00:00Z"><path id="p_423.3372733992359" d="M-4.120309368372307e-15,22.429919501367127A22.429919501367127,22.429919501367127,0,1,1,4.120309368372307e-15,-22.429919501367127A22.429919501367127,22.429919501367127,0,1,1,-4.120309368372307e-15,22.429919501367127Z" fill="#d0021b" stroke="none"/></g><g transform="translate(502.2061083486821,94.3585665578774)" id="1956-06-03T00:00:00Z"><path id="p_617.9945944079267" d="M-4.120309368372307e-15,22.429919501367127A22.429919501367127,22.429919501367127,0,1,1,4.120309368372307e-15,-22.429919501367127A22.429919501367127,22.429919501367127,0,1,1,-4.120309368372307e-15,22.429919501367127Z" fill="#d0021b" stroke="none"/></g><g transform="translate(502.2061083486821,439.702255742206)" id="1928-11-30T00:00:00Z"><path id="p_963.3382835922553" d="M-4.120309368372307e-15,22.429919501367127A22.429919501367127,22.429919501367127,0,1,1,4.120309368372307e-15,-22.429919501367127A22.429919501367127,22.429919501367127,0,1,1,-4.120309368372307e-15,22.429919501367127Z" fill="#d0021b" stroke="none"/></g><g transform="translate(576.8444460809059,192.08857021822996)" id="1882-10-27T00:00:00Z"><path id="p_790.362935800503" d="M-4.120309368372307e-15,22.429919501367127A22.429919501367127,22.429919501367127,0,1,1,4.120309368372307e-15,-22.429919501367127A22.429919501367127,22.429919501367127,0,1,1,-4.120309368372307e-15,22.429919501367127Z" fill="#d0021b" stroke="none"/></g><g transform="translate(215.13930621916376,154.52023099006948)" id="1902-10-17T00:00:00Z"><path id="p_391.08945671060036" d="M-4.120309368372307e-15,22.429919501367127A22.429919501367127,22.429919501367127,0,1,1,4.120309368372307e-15,-22.429919501367127A22.429919501367127,22.429919501367127,0,1,1,-4.120309368372307e-15,22.429919501367127Z" fill="#d0021b" stroke="none"/></g><g transform="translate(180.8475374823554,311.80308120417584)" id="1985-07-25T00:00:00Z"><path id="p_514.0805381878984" d="M-4.120309368372307e-15,22.429919501367127A22.429919501367127,22.429919501367127,0,1,1,4.120309368372307e-15,-22.429919501367127A22.429919501367127,22.429919501367127,0,1,1,-4.120309368372307e-15,22.429919501367127Z" fill="#d0021b" stroke="none"/></g><g transform="translate(216.9102751839984,384.67675367200576)" id="1940-09-27T00:00:00Z"><path id="p_623.0169483573713" d="M-4.120309368372307e-15,22.429919501367127A22.429919501367127,22.429919501367127,0,1,1,4.120309368372307e-15,-22.429919501367127A22.429919501367127,22.429919501367127,0,1,1,-4.120309368372307e-15,22.429919501367127Z" fill="#d0021b" stroke="none"/></g><g transform="translate(602.9523620282697,305.16381000271025)" id="1996-09-24T00:00:00Z"><path id="p_929.5460915323471" d="M-4.120309368372307e-15,22.429919501367127A22.429919501367127,22.429919501367127,0,1,1,4.120309368372307e-15,-22.429919501367127A22.429919501367127,22.429919501367127,0,1,1,-4.120309368372307e-15,22.429919501367127Z" fill="#d0021b" stroke="none"/></g><g transform="translate(212.47966893026341,107.84410940204702)" id="1857-09-14T00:00:00Z"><path id="p_341.75369783367756" d="M-4.120309368372307e-15,22.429919501367127A22.429919501367127,22.429919501367127,0,1,1,4.120309368372307e-15,-22.429919501367127A22.429919501367127,22.429919501367127,0,1,1,-4.120309368372307e-15,22.429919501367127Z" fill="#d0021b" stroke="none"/></g><g transform="translate(596.3450899422735,234.57926197537208)" id="1925-03-17T00:00:00Z"><path id="p_852.3542714190128" d="M-4.120309368372307e-15,22.429919501367127A22.429919501367127,22.429919501367127,0,1,1,4.120309368372307e-15,-22.429919501367127A22.429919501367127,22.429919501367127,0,1,1,-4.120309368372307e-15,22.429919501367127Z" fill="#d0021b" stroke="none"/></g><g transform="translate(316.9879781779023,53.59356107762642)" id="1952-01-07T00:00:00Z"><path id="p_392.0114587568958" d="M-4.120309368372307e-15,22.429919501367127A22.429919501367127,22.429919501367127,0,1,1,4.120309368372307e-15,-22.429919501367127A22.429919501367127,22.429919501367127,0,1,1,-4.120309368372307e-15,22.429919501367127Z" fill="#d0021b" stroke="none"/></g><g transform="translate(316.9879781779023,480.46726122245695)" id="1941-08-24T00:00:00Z"><path id="p_818.8851589017264" d="M-4.120309368372307e-15,22.429919501367127A22.429919501367127,22.429919501367127,0,1,1,4.120309368372307e-15,-22.429919501367127A22.429919501367127,22.429919501367127,0,1,1,-4.120309368372307e-15,22.429919501367127Z" fill="#d0021b" stroke="none"/></g><g transform="translate(596.3450899422735,375.7483580300484)" id="1962-03-29T00:00:00Z"><path id="p_993.5233674736891" d="M-4.120309368372307e-15,22.429919501367127A22.429919501367127,22.429919501367127,0,1,1,4.120309368372307e-15,-22.429919501367127A22.429919501367127,22.429919501367127,0,1,1,-4.120309368372307e-15,22.429919501367127Z" fill="#d0021b" stroke="none"/></g><g transform="translate(444.3817326853626,489.4311810410108)" id="1950-11-17T00:00:00Z"><path id="p_955.2428332277406" d="M-4.120309368372307e-15,22.429919501367127A22.429919501367127,22.429919501367127,0,1,1,4.120309368372307e-15,-22.429919501367127A22.429919501367127,22.429919501367127,0,1,1,-4.120309368372307e-15,22.429919501367127Z" fill="#d0021b" stroke="none"/></g><g transform="translate(444.3817326853626,44.6296412590726)" id="1921-08-14T00:00:00Z"><path id="p_510.4412934458023" d="M-4.120309368372307e-15,22.429919501367127A22.429919501367127,22.429919501367127,0,1,1,4.120309368372307e-15,-22.429919501367127A22.429919501367127,22.429919501367127,0,1,1,-4.120309368372307e-15,22.429919501367127Z" fill="#d0021b" stroke="none"/></g><g transform="translate(173.0903741450434,174.9560159868435)" id="1946-04-16T00:00:00Z"><path id="p_369.47630963325406" d="M-4.120309368372307e-15,22.429919501367127A22.429919501367127,22.429919501367127,0,1,1,4.120309368372307e-15,-22.429919501367127A22.429919501367127,22.429919501367127,0,1,1,-4.120309368372307e-15,22.429919501367127Z" fill="#d0021b" stroke="none"/></g><g transform="translate(547.1371122366302,107.279049777539)" id="1949-11-09T00:00:00Z"><path id="p_675.8460815155364" d="M-4.120309368372307e-15,22.429919501367127A22.429919501367127,22.429919501367127,0,1,1,4.120309368372307e-15,-22.429919501367127A22.429919501367127,22.429919501367127,0,1,1,-4.120309368372307e-15,22.429919501367127Z" fill="#d0021b" stroke="none"/></g><g transform="translate(623.3927864976488,196.44586312270357)" id="1964-07-06T00:00:00Z"><path id="p_841.2685691217196" d="M-4.120309368372307e-15,22.429919501367127A22.429919501367127,22.429919501367127,0,1,1,4.120309368372307e-15,-22.429919501367127A22.429919501367127,22.429919501367127,0,1,1,-4.120309368372307e-15,22.429919501367127Z" fill="#d0021b" stroke="none"/></g><g transform="translate(177.81738678308992,359.0353794209544)" id="1937-08-08T00:00:00Z"><path id="p_558.2826857054115" d="M-4.120309368372307e-15,22.429919501367127A22.429919501367127,22.429919501367127,0,1,1,4.120309368372307e-15,-22.429919501367127A22.429919501367127,22.429919501367127,0,1,1,-4.120309368372307e-15,22.429919501367127Z" fill="#d0021b" stroke="none"/></g><g transform="translate(548.7544487654251,435.3449628377324)" id="1960-03-07T00:00:00Z"><path id="p_1005.5293311045247" d="M-4.120309368372307e-15,22.429919501367127A22.429919501367127,22.429919501367127,0,1,1,4.120309368372307e-15,-22.429919501367127A22.429919501367127,22.429919501367127,0,1,1,-4.120309368372307e-15,22.429919501367127Z" fill="#d0021b" stroke="none"/></g><g transform="translate(139.0950117925465,332.83782854114696)" id="1956-09-23T00:00:00Z"><path id="p_493.36275983506056" d="M-4.120309368372307e-15,22.429919501367127A22.429919501367127,22.429919501367127,0,1,1,4.120309368372307e-15,-22.429919501367127A22.429919501367127,22.429919501367127,0,1,1,-4.120309368372307e-15,22.429919501367127Z" fill="#d0021b" stroke="none"/></g><g transform="translate(214.76879280879868,431.37951644087275)" id="1973-11-24T00:00:00Z"><path id="p_667.5782287510386" d="M-4.120309368372307e-15,22.429919501367127A22.429919501367127,22.429919501367127,0,1,1,4.120309368372307e-15,-22.429919501367127A22.429919501367127,22.429919501367127,0,1,1,-4.120309368372307e-15,22.429919501367127Z" fill="#d0021b" stroke="none"/></g><g transform="translate(239.5273654856387,69.71071054937849)" id="1965-05-17T00:00:00Z"><path id="p_330.66799553638435" d="M-4.120309368372307e-15,22.429919501367127A22.429919501367127,22.429919501367127,0,1,1,4.120309368372307e-15,-22.429919501367127A22.429919501367127,22.429919501367127,0,1,1,-4.120309368372307e-15,22.429919501367127Z" fill="#d0021b" stroke="none"/></g><g transform="translate(241.81648936417398,469.51291529354125)" id="1945-06-07T00:00:00Z"><path id="p_732.7593241590824" d="M-4.120309368372307e-15,22.429919501367127A22.429919501367127,22.429919501367127,0,1,1,4.120309368372307e-15,-22.429919501367127A22.429919501367127,22.429919501367127,0,1,1,-4.120309368372307e-15,22.429919501367127Z" fill="#d0021b" stroke="none"/></g><g transform="translate(147.19256884098388,279.3519320295062)" id="1990-06-17T00:00:00Z"><path id="p_447.9744203718572" d="M-4.120309368372307e-15,22.429919501367127A22.429919501367127,22.429919501367127,0,1,1,4.120309368372307e-15,-22.429919501367127A22.429919501367127,22.429919501367127,0,1,1,-4.120309368372307e-15,22.429919501367127Z" fill="#d0021b" stroke="none"/></g><g transform="translate(135.91653359440724,233.980299635175)" id="1957-03-19T00:00:00Z"><path id="p_391.32675273094935" d="M-4.120309368372307e-15,22.429919501367127A22.429919501367127,22.429919501367127,0,1,1,4.120309368372307e-15,-22.429919501367127A22.429919501367127,22.429919501367127,0,1,1,-4.120309368372307e-15,22.429919501367127Z" fill="#d0021b" stroke="none"/></g><g transform="translate(490.93007310210555,48.98693416354624)" id="1954-10-12T00:00:00Z"><path id="p_561.346926767019" d="M-4.120309368372307e-15,22.429919501367127A22.429919501367127,22.429919501367127,0,1,1,4.120309368372307e-15,-22.429919501367127A22.429919501367127,22.429919501367127,0,1,1,-4.120309368372307e-15,22.429919501367127Z" fill="#d0021b" stroke="none"/></g><g transform="translate(490.9300731021055,485.0738881365372)" id="1955-11-20T00:00:00Z"><path id="p_997.4338807400098" d="M-4.120309368372307e-15,22.429919501367127A22.429919501367127,22.429919501367127,0,1,1,4.120309368372307e-15,-22.429919501367127A22.429919501367127,22.429919501367127,0,1,1,-4.120309368372307e-15,22.429919501367127Z" fill="#d0021b" stroke="none"/></g><g transform="translate(630.000058583645,267.03041115004174)" id="1924-08-02T00:00:00Z"><path id="p_918.4603892350539" d="M-4.120309368372307e-15,22.429919501367127A22.429919501367127,22.429919501367127,0,1,1,4.120309368372307e-15,-22.429919501367127A22.429919501367127,22.429919501367127,0,1,1,-4.120309368372307e-15,22.429919501367127Z" fill="#d0021b" stroke="none"/></g><g transform="translate(596.3450899422735,149.59787846108782)" id="1924-02-06T00:00:00Z"><path id="p_767.3728879047285" d="M-4.120309368372307e-15,22.429919501367127A22.429919501367127,22.429919501367127,0,1,1,4.120309368372307e-15,-22.429919501367127A22.429919501367127,22.429919501367127,0,1,1,-4.120309368372307e-15,22.429919501367127Z" fill="#d0021b" stroke="none"/></g><g transform="translate(356.08086657881074,506.10863547350834)" id="1974-08-17T00:00:00Z"><path id="p_883.6194215536863" d="M-4.120309368372307e-15,22.429919501367127A22.429919501367127,22.429919501367127,0,1,1,4.120309368372307e-15,-22.429919501367127A22.429919501367127,22.429919501367127,0,1,1,-4.120309368372307e-15,22.429919501367127Z" fill="#d0021b" stroke="none"/></g><g transform="translate(356.08086657881074,27.95218682657506)" id="1957-07-19T00:00:00Z"><path id="p_405.4629729067529" d="M-4.120309368372307e-15,22.429919501367127A22.429919501367127,22.429919501367127,0,1,1,4.120309368372307e-15,-22.429919501367127A22.429919501367127,22.429919501367127,0,1,1,-4.120309368372307e-15,22.429919501367127Z" fill="#d0021b" stroke="none"/></g><g transform="translate(314.3283408890019,527.1433828104795)" id="1899-08-24T00:00:00Z"><path id="p_862.9016432008485" d="M-4.120309368372307e-15,22.429919501367127A22.429919501367127,22.429919501367127,0,1,1,4.120309368372307e-15,-22.429919501367127A22.429919501367127,22.429919501367127,0,1,1,-4.120309368372307e-15,22.429919501367127Z" fill="#d0021b" stroke="none"/></g></g><g id="labels"><g transform="translate(359.4554363396396,267.0304111500417)"><text text-anchor="middle" dominant-baseline="text-before-edge" transform="translate(0,-5.599999904632568)"><tspan x="0" y="0" dy="0" style="font-family: Arial, sans-serif; font-size: 10px; fill: black; font-weight: bold;">Enzo Garinei</tspan></text></g><g transform="translate(415.4980473566655,267.0304111500417)"><text text-anchor="middle" dominant-baseline="text-before-edge" transform="translate(0,-5.599999904632568)"><tspan x="0" y="0" dy="0" style="font-family: Arial, sans-serif; font-size: 10px; fill: black; font-weight: bold;">Debora Caprioglio</tspan></text></g><g transform="translate(395.9974034952978,309.52110290718383)"><text text-anchor="middle" dominant-baseline="text-before-edge" transform="translate(0,-5.599999904632568)"><tspan x="0" y="0" dy="0" style="font-family: Arial, sans-serif; font-size: 10px; fill: black; font-weight: bold;">Elsa Martinelli</tspan></text></g><g transform="translate(395.9974034952978,224.5397193928996)"><text text-anchor="middle" dominant-baseline="text-before-edge" transform="translate(0,-5.599999904632568)"><tspan x="0" y="0" dy="0" style="font-family: Arial, sans-serif; font-size: 10px; fill: black; font-weight: bold;">Carla Gravina</tspan></text></g><g transform="translate(351.0663996073497,211.619236173238)"><text text-anchor="middle" dominant-baseline="text-before-edge" transform="translate(0,-5.599999904632568)"><tspan x="0" y="0" dy="0" style="font-family: Arial, sans-serif; font-size: 10px; fill: black; font-weight: bold;">Paolo Villaggio</tspan></text></g><g transform="translate(351.0663996073497,322.44158612684544)"><text text-anchor="middle" dominant-baseline="text-before-edge" transform="translate(0,-5.599999904632568)"><tspan x="0" y="0" dy="0" style="font-family: Arial, sans-serif; font-size: 10px; fill: black; font-weight: bold;">Cesare Bocci</tspan></text></g><g transform="translate(442.5457439120408,228.89701229737318)"><text text-anchor="middle" dominant-baseline="text-before-edge" transform="translate(0,-5.599999904632568)"><tspan x="0" y="0" dy="0" style="font-family: Arial, sans-serif; font-size: 10px; fill: black; font-weight: bold;">Lorella Cuccarini</tspan></text></g><g transform="translate(442.5457439120408,305.16381000271025)"><text text-anchor="middle" dominant-baseline="text-before-edge" transform="translate(0,-5.599999904632568)"><tspan x="0" y="0" dy="0" style="font-family: Arial, sans-serif; font-size: 10px; fill: black; font-weight: bold;">Silvia Dionisio</tspan></text></g><g transform="translate(311.97351120644123,296.8002118757941)"><text text-anchor="middle" dominant-baseline="text-before-edge" transform="translate(0,-5.599999904632568)"><tspan x="0" y="0" dy="0" style="font-family: Arial, sans-serif; font-size: 10px; fill: black; font-weight: bold;">Athina Cenci</tspan></text></g><g transform="translate(311.97351120644123,237.26061042428933)"><text text-anchor="middle" dominant-baseline="text-before-edge" transform="translate(0,-5.599999904632568)"><tspan x="0" y="0" dy="0" style="font-family: Arial, sans-serif; font-size: 10px; fill: black; font-weight: bold;">Marisa Pavan</tspan></text></g><g transform="translate(384.72136824872126,179.16808699856838)"><text text-anchor="middle" dominant-baseline="text-before-edge" transform="translate(0,-5.599999904632568)"><tspan x="0" y="0" dy="0" style="font-family: Arial, sans-serif; font-size: 10px; fill: black; font-weight: bold;">Salvatore Schillaci</tspan></text></g><g transform="translate(384.72136824872126,354.892735301515)"><text text-anchor="middle" dominant-baseline="text-before-edge" transform="translate(0,-5.599999904632568)"><tspan x="0" y="0" dy="0" style="font-family: Arial, sans-serif; font-size: 10px; fill: black; font-weight: bold;">Tinto Brass</tspan></text></g><g transform="translate(469.5934404674161,267.0304111500417)"><text text-anchor="middle" dominant-baseline="text-before-edge" transform="translate(0,-5.599999904632568)"><tspan x="0" y="0" dy="0" style="font-family: Arial, sans-serif; font-size: 10px; fill: black; font-weight: bold;">Eduardo De Filippo</tspan></text></g><g transform="translate(275.9250304928612,267.0304111500417)"><text text-anchor="middle" dominant-baseline="text-before-edge" transform="translate(0,-5.599999904632568)"><tspan x="0" y="0" dy="0" style="font-family: Arial, sans-serif; font-size: 10px; fill: black; font-weight: bold;">Eduardo De Filippo</tspan></text></g><g transform="translate(431.2697086654642,183.525379903042)"><text text-anchor="middle" dominant-baseline="text-before-edge" transform="translate(0,-5.599999904632568)"><tspan x="0" y="0" dy="0" style="font-family: Arial, sans-serif; font-size: 10px; fill: black; font-weight: bold;">Lino Ventura</tspan></text></g><g transform="translate(431.2697086654642,350.53544239704144)"><text text-anchor="middle" dominant-baseline="text-before-edge" transform="translate(0,-5.599999904632568)"><tspan x="0" y="0" dy="0" style="font-family: Arial, sans-serif; font-size: 10px; fill: black; font-weight: bold;">Gerry Scotti</tspan></text></g><g transform="translate(309.3138739175409,343.47633346381656)"><text text-anchor="middle" dominant-baseline="text-before-edge" transform="translate(0,-5.599999904632568)"><tspan x="0" y="0" dy="0" style="font-family: Arial, sans-serif; font-size: 10px; fill: black; font-weight: bold;">Massimo Boldi</tspan></text></g><g transform="translate(309.3138739175409,190.58448883626687)"><text text-anchor="middle" dominant-baseline="text-before-edge" transform="translate(0,-5.599999904632568)"><tspan x="0" y="0" dy="0" style="font-family: Arial, sans-serif; font-size: 10px; fill: black; font-weight: bold;">Isabella Ragonese</tspan></text></g><g transform="translate(342.9688425589124,158.13333966159726)"><text text-anchor="middle" dominant-baseline="text-before-edge" transform="translate(0,-5.599999904632568)"><tspan x="0" y="0" dy="0" style="font-family: Arial, sans-serif; font-size: 10px; fill: black; font-weight: bold;">Franca Rame</tspan></text></g><g transform="translate(342.9688425589124,375.92748263848614)"><text text-anchor="middle" dominant-baseline="text-before-edge" transform="translate(0,-5.599999904632568)"><tspan x="0" y="0" dy="0" style="font-family: Arial, sans-serif; font-size: 10px; fill: black; font-weight: bold;">Gloria Guida</tspan></text></g><g transform="translate(489.0940843287837,224.5397193928996)"><text text-anchor="middle" dominant-baseline="text-before-edge" transform="translate(0,-5.599999904632568)"><tspan x="0" y="0" dy="0" style="font-family: Arial, sans-serif; font-size: 10px; fill: black; font-weight: bold;">Emma Gramatica</tspan></text></g><g transform="translate(489.0940843287837,309.52110290718383)"><text text-anchor="middle" dominant-baseline="text-before-edge" transform="translate(0,-5.599999904632568)"><tspan x="0" y="0" dy="0" style="font-family: Arial, sans-serif; font-size: 10px; fill: black; font-weight: bold;">Emma Gramatica</tspan></text></g><g transform="translate(477.81804908220715,179.16808699856838)"><text text-anchor="middle" dominant-baseline="text-before-edge" transform="translate(0,-5.599999904632568)"><tspan x="0" y="0" dy="0" style="font-family: Arial, sans-serif; font-size: 10px; fill: black; font-weight: bold;">Barbara Matera</tspan></text></g><g transform="translate(477.81804908220715,354.892735301515)"><text text-anchor="middle" dominant-baseline="text-before-edge" transform="translate(0,-5.599999904632568)"><tspan x="0" y="0" dy="0" style="font-family: Arial, sans-serif; font-size: 10px; fill: black; font-weight: bold;">Roberto Benigni</tspan></text></g><g transform="translate(411.7690648040965,393.0261341541836)"><text text-anchor="middle" dominant-baseline="text-before-edge" transform="translate(0,-5.599999904632568)"><tspan x="0" y="0" dy="0" style="font-family: Arial, sans-serif; font-size: 10px; fill: black; font-weight: bold;">Fabio Fazio</tspan></text></g><g transform="translate(411.76906480409656,141.03468814589985)"><text text-anchor="middle" dominant-baseline="text-before-edge" transform="translate(0,-5.599999904632568)"><tspan x="0" y="0" dy="0" style="font-family: Arial, sans-serif; font-size: 10px; fill: black; font-weight: bold;">Beppe Grillo</tspan></text></g><g transform="translate(270.22098551663237,317.8349592127652)"><text text-anchor="middle" dominant-baseline="text-before-edge" transform="translate(0,-5.599999904632568)"><tspan x="0" y="0" dy="0" style="font-family: Arial, sans-serif; font-size: 10px; fill: black; font-weight: bold;">Giuliano Montaldo</tspan></text></g><g transform="translate(270.22098551663237,216.22586308731817)"><text text-anchor="middle" dominant-baseline="text-before-edge" transform="translate(0,-5.599999904632568)"><tspan x="0" y="0" dy="0" style="font-family: Arial, sans-serif; font-size: 10px; fill: black; font-weight: bold;">Franco Zeffirelli</tspan></text></g><g transform="translate(234.1725048030523,245.9956638130706)"><text text-anchor="middle" dominant-baseline="text-before-edge" transform="translate(0,-5.599999904632568)"><tspan x="0" y="0" dy="0" style="font-family: Arial, sans-serif; font-size: 10px; fill: black; font-weight: bold;">Rocco Siffredi</tspan></text></g><g transform="translate(230.84594771947533,292.6289996896521)"><text text-anchor="middle" dominant-baseline="text-before-edge" transform="translate(0,-5.599999904632568)"><tspan x="0" y="0" dy="0" style="font-family: Arial, sans-serif; font-size: 10px; fill: black; font-weight: bold;">Monica Bellucci</tspan></text></g><g transform="translate(516.1417808841591,262.6731182455681)"><text text-anchor="middle" dominant-baseline="text-before-edge" transform="translate(0,-5.599999904632568)"><tspan x="0" y="0" dy="0" style="font-family: Arial, sans-serif; font-size: 10px; fill: black; font-weight: bold;">Ombretta Colli</tspan></text></g><g transform="translate(535.6424247455267,305.16381000271025)"><text text-anchor="middle" dominant-baseline="text-before-edge" transform="translate(0,-5.599999904632568)"><tspan x="0" y="0" dy="0" style="font-family: Arial, sans-serif; font-size: 10px; fill: black; font-weight: bold;">Domenico Modugno</tspan></text></g><g transform="translate(370.0165391142877,414.0608814911547)"><text text-anchor="middle" dominant-baseline="text-before-edge" transform="translate(0,-5.599999904632568)"><tspan x="0" y="0" dy="0" style="font-family: Arial, sans-serif; font-size: 10px; fill: black; font-weight: bold;">Bud Spencer</tspan></text></g><g transform="translate(370.0165391142877,119.99994080892873)"><text text-anchor="middle" dominant-baseline="text-before-edge" transform="translate(0,-5.599999904632568)"><tspan x="0" y="0" dy="0" style="font-family: Arial, sans-serif; font-size: 10px; fill: black; font-weight: bold;">Sabrina Salerno</tspan></text></g><g transform="translate(298.03783867096433,388.84796585814775)"><text text-anchor="middle" dominant-baseline="text-before-edge" transform="translate(0,-5.599999904632568)"><tspan x="0" y="0" dy="0" style="font-family: Arial, sans-serif; font-size: 10px; fill: black; font-weight: bold;">Iva Zanicchi</tspan></text></g><g transform="translate(298.0378386709643,145.21285644193568)"><text text-anchor="middle" dominant-baseline="text-before-edge" transform="translate(0,-5.599999904632568)"><tspan x="0" y="0" dy="0" style="font-family: Arial, sans-serif; font-size: 10px; fill: black; font-weight: bold;">Francesca Neri</tspan></text></g><g transform="translate(458.3174052208395,136.67739524142624)"><text text-anchor="middle" dominant-baseline="text-before-edge" transform="translate(0,-5.599999904632568)"><tspan x="0" y="0" dy="0" style="font-family: Arial, sans-serif; font-size: 10px; fill: black; font-weight: bold;">Milva</tspan></text></g><g transform="translate(458.3174052208395,397.38342705865716)"><text text-anchor="middle" dominant-baseline="text-before-edge" transform="translate(0,-5.599999904632568)"><tspan x="0" y="0" dy="0" style="font-family: Arial, sans-serif; font-size: 10px; fill: black; font-weight: bold;">Terence Hill</tspan></text></g><g transform="translate(258.9449502700558,363.2065916070964)"><text text-anchor="middle" dominant-baseline="text-before-edge" transform="translate(0,-5.599999904632568)"><tspan x="0" y="0" dy="0" style="font-family: Arial, sans-serif; font-size: 10px; fill: black; font-weight: bold;">Nicoletta Braschi</tspan></text></g><g transform="translate(258.94495027005576,170.854230692987)"><text text-anchor="middle" dominant-baseline="text-before-edge" transform="translate(0,-5.599999904632568)"><tspan x="0" y="0" dy="0" style="font-family: Arial, sans-serif; font-size: 10px; fill: black; font-weight: bold;">Vladimir Luxuria</tspan></text></g><g transform="translate(522.7490529701553,192.08857021822996)"><text text-anchor="middle" dominant-baseline="text-before-edge" transform="translate(0,-5.599999904632568)"><tspan x="0" y="0" dy="0" style="font-family: Arial, sans-serif; font-size: 10px; fill: black; font-weight: bold;">Rita Pavone</tspan></text></g><g transform="translate(524.3663894989501,350.53544239704144)"><text text-anchor="middle" dominant-baseline="text-before-edge" transform="translate(0,-5.599999904632568)"><tspan x="0" y="0" dy="0" style="font-family: Arial, sans-serif; font-size: 10px; fill: black; font-weight: bold;">Raffaella Carr</tspan></text></g><g transform="translate(549.7967495255306,230.22196907089847)"><text text-anchor="middle" dominant-baseline="text-before-edge" transform="translate(0,-5.599999904632568)"><tspan x="0" y="0" dy="0" style="font-family: Arial, sans-serif; font-size: 10px; fill: black; font-weight: bold;">Claudio Morganti</tspan></text></g><g transform="translate(325.0855352263396,426.98136471081625)"><text text-anchor="middle" dominant-baseline="text-before-edge" transform="translate(0,-5.599999904632568)"><tspan x="0" y="0" dy="0" style="font-family: Arial, sans-serif; font-size: 10px; fill: black; font-weight: bold;">Baby Pozzi</tspan></text></g><g transform="translate(325.08553522633963,107.07945758926715)"><text text-anchor="middle" dominant-baseline="text-before-edge" transform="translate(0,-5.599999904632568)"><tspan x="0" y="0" dy="0" style="font-family: Arial, sans-serif; font-size: 10px; fill: black; font-weight: bold;">Jo Prestia</tspan></text></g><g transform="translate(222.8964695564757,200.62403141873938)"><text text-anchor="middle" dominant-baseline="text-before-edge" transform="translate(0,-5.599999904632568)"><tspan x="0" y="0" dy="0" style="font-family: Arial, sans-serif; font-size: 10px; fill: black; font-weight: bold;">Liliana Ross</tspan></text></g><g transform="translate(409.10942751519616,94.3585665578774)"><text text-anchor="middle" dominant-baseline="text-before-edge" transform="translate(0,-5.599999904632568)"><tspan x="0" y="0" dy="0" style="font-family: Arial, sans-serif; font-size: 10px; fill: black; font-weight: bold;">Luana Borgia</tspan></text></g><g transform="translate(409.10942751519616,439.702255742206)"><text text-anchor="middle" dominant-baseline="text-before-edge" transform="translate(0,-5.599999904632568)"><tspan x="0" y="0" dy="0" style="font-family: Arial, sans-serif; font-size: 10px; fill: black; font-weight: bold;">Bruno Arena</tspan></text></g><g transform="translate(219.56991247289878,338.0006320839833)"><text text-anchor="middle" dominant-baseline="text-before-edge" transform="translate(0,-5.599999904632568)"><tspan x="0" y="0" dy="0" style="font-family: Arial, sans-serif; font-size: 10px; fill: black; font-weight: bold;">Sara Tommasi</tspan></text></g><g transform="translate(455.65776793193913,90.00127365340384)"><text text-anchor="middle" dominant-baseline="text-before-edge" transform="translate(0,-5.599999904632568)"><tspan x="0" y="0" dy="0" style="font-family: Arial, sans-serif; font-size: 10px; fill: black; font-weight: bold;">Andrea Buscemi</tspan></text></g><g transform="translate(455.65776793193913,444.05954864667956)"><text text-anchor="middle" dominant-baseline="text-before-edge" transform="translate(0,-5.599999904632568)"><tspan x="0" y="0" dy="0" style="font-family: Arial, sans-serif; font-size: 10px; fill: black; font-weight: bold;">Gipo Farassino</tspan></text></g><g transform="translate(504.86574563758245,141.03468814589985)"><text text-anchor="middle" dominant-baseline="text-before-edge" transform="translate(0,-5.599999904632568)"><tspan x="0" y="0" dy="0" style="font-family: Arial, sans-serif; font-size: 10px; fill: black; font-weight: bold;">Girolamo Panzetta</tspan></text></g><g transform="translate(504.86574563758245,393.0261341541836)"><text text-anchor="middle" dominant-baseline="text-before-edge" transform="translate(0,-5.599999904632568)"><tspan x="0" y="0" dy="0" style="font-family: Arial, sans-serif; font-size: 10px; fill: black; font-weight: bold;">Giulia Cassini Rizzotto</tspan></text></g><g transform="translate(549.7967495255306,153.95517136556143)"><text text-anchor="middle" dominant-baseline="text-before-edge" transform="translate(0,-5.599999904632568)"><tspan x="0" y="0" dy="0" style="font-family: Arial, sans-serif; font-size: 10px; fill: black; font-weight: bold;">Giulio Cavalli</tspan></text></g><g transform="translate(569.2973933868982,272.7126608280406)"><text text-anchor="middle" dominant-baseline="text-before-edge" transform="translate(0,-5.599999904632568)"><tspan x="0" y="0" dy="0" style="font-family: Arial, sans-serif; font-size: 10px; fill: black; font-weight: bold;">Giuseppe Zeno</tspan></text></g><g transform="translate(551.4140860543254,388.66884124971)"><text text-anchor="middle" dominant-baseline="text-before-edge" transform="translate(0,-5.599999904632568)"><tspan x="0" y="0" dy="0" style="font-family: Arial, sans-serif; font-size: 10px; fill: black; font-weight: bold;">Isa Bellini</tspan></text></g><g transform="translate(192.12357272893198,266.4314488098446)"><text text-anchor="middle" dominant-baseline="text-before-edge" transform="translate(0,-5.599999904632568)"><tspan x="0" y="0" dy="0" style="font-family: Arial, sans-serif; font-size: 10px; fill: black; font-weight: bold;">Mao</tspan></text></g><g transform="translate(256.28531298115547,409.88271319511887)"><text text-anchor="middle" dominant-baseline="text-before-edge" transform="translate(0,-5.599999904632568)"><tspan x="0" y="0" dy="0" style="font-family: Arial, sans-serif; font-size: 10px; fill: black; font-weight: bold;">Marcella Di Folco</tspan></text></g><g transform="translate(256.28531298115547,124.17810910496456)"><text text-anchor="middle" dominant-baseline="text-before-edge" transform="translate(0,-5.599999904632568)"><tspan x="0" y="0" dy="0" style="font-family: Arial, sans-serif; font-size: 10px; fill: black; font-weight: bold;">Marina Dolfin</tspan></text></g><g transform="translate(358.74050386771114,74.62830841459751)"><text text-anchor="middle" dominant-baseline="text-before-edge" transform="translate(0,-5.599999904632568)"><tspan x="0" y="0" dy="0" style="font-family: Arial, sans-serif; font-size: 10px; fill: black; font-weight: bold;">Miriam Giovanelli</tspan></text></g><g transform="translate(358.74050386771114,459.43251388548595)"><text text-anchor="middle" dominant-baseline="text-before-edge" transform="translate(0,-5.599999904632568)"><tspan x="0" y="0" dy="0" style="font-family: Arial, sans-serif; font-size: 10px; fill: black; font-weight: bold;">Nicola Savino</tspan></text></g><g transform="translate(283.33300953653077,448.0161120477874)"><text text-anchor="middle" dominant-baseline="text-before-edge" transform="translate(0,-5.599999904632568)"><tspan x="0" y="0" dy="0" style="font-family: Arial, sans-serif; font-size: 10px; fill: black; font-weight: bold;">Nicoletta Orsomando</tspan></text></g><g transform="translate(283.33300953653077,86.04471025229606)"><text text-anchor="middle" dominant-baseline="text-before-edge" transform="translate(0,-5.599999904632568)"><tspan x="0" y="0" dy="0" style="font-family: Arial, sans-serif; font-size: 10px; fill: black; font-weight: bold;">Ornella Grassi</tspan></text></g><g transform="translate(569.2973933868982,337.6149591773799)"><text text-anchor="middle" dominant-baseline="text-before-edge" transform="translate(0,-5.599999904632568)"><tspan x="0" y="0" dy="0" style="font-family: Arial, sans-serif; font-size: 10px; fill: black; font-weight: bold;">Oscar Mamm</tspan></text></g><g transform="translate(397.8333922686196,485.0738881365372)"><text text-anchor="middle" dominant-baseline="text-before-edge" transform="translate(0,-5.599999904632568)"><tspan x="0" y="0" dy="0" style="font-family: Arial, sans-serif; font-size: 10px; fill: black; font-weight: bold;">Paola Quattrini</tspan></text></g><g transform="translate(397.8333922686196,48.98693416354624)"><text text-anchor="middle" dominant-baseline="text-before-edge" transform="translate(0,-5.599999904632568)"><tspan x="0" y="0" dy="0" style="font-family: Arial, sans-serif; font-size: 10px; fill: black; font-weight: bold;">Pif</tspan></text></g><g transform="translate(180.84753748235536,221.0598164155134)"><text text-anchor="middle" dominant-baseline="text-before-edge" transform="translate(0,-5.599999904632568)"><tspan x="0" y="0" dy="0" style="font-family: Arial, sans-serif; font-size: 10px; fill: black; font-weight: bold;">Sabrina Impacciatore</tspan></text></g><g transform="translate(502.2061083486821,94.3585665578774)"><text text-anchor="middle" dominant-baseline="text-before-edge" transform="translate(0,-5.599999904632568)"><tspan x="0" y="0" dy="0" style="font-family: Arial, sans-serif; font-size: 10px; fill: black; font-weight: bold;">Elisabetta Gardini</tspan></text></g><g transform="translate(502.2061083486821,439.702255742206)"><text text-anchor="middle" dominant-baseline="text-before-edge" transform="translate(0,-5.599999904632568)"><tspan x="0" y="0" dy="0" style="font-family: Arial, sans-serif; font-size: 10px; fill: black; font-weight: bold;">Enzo Tortora</tspan></text></g><g transform="translate(576.8444460809059,192.08857021822996)"><text text-anchor="middle" dominant-baseline="text-before-edge" transform="translate(0,-5.599999904632568)"><tspan x="0" y="0" dy="0" style="font-family: Arial, sans-serif; font-size: 10px; fill: black; font-weight: bold;">Fatima Miris</tspan></text></g><g transform="translate(215.13930621916376,154.52023099006948)"><text text-anchor="middle" dominant-baseline="text-before-edge" transform="translate(0,-5.599999904632568)"><tspan x="0" y="0" dy="0" style="font-family: Arial, sans-serif; font-size: 10px; fill: black; font-weight: bold;">Francesca Braggiotti</tspan></text></g><g transform="translate(180.8475374823554,311.80308120417584)"><text text-anchor="middle" dominant-baseline="text-before-edge" transform="translate(0,-5.599999904632568)"><tspan x="0" y="0" dy="0" style="font-family: Arial, sans-serif; font-size: 10px; fill: black; font-weight: bold;">Francesca Chillemi</tspan></text></g><g transform="translate(216.9102751839984,384.67675367200576)"><text text-anchor="middle" dominant-baseline="text-before-edge" transform="translate(0,-5.599999904632568)"><tspan x="0" y="0" dy="0" style="font-family: Arial, sans-serif; font-size: 10px; fill: black; font-weight: bold;">Gianni Elsner</tspan></text></g><g transform="translate(602.9523620282697,305.16381000271025)"><text text-anchor="middle" dominant-baseline="text-before-edge" transform="translate(0,-5.599999904632568)"><tspan x="0" y="0" dy="0" style="font-family: Arial, sans-serif; font-size: 10px; fill: black; font-weight: bold;">Giorgia Gianetiempo</tspan></text></g><g transform="translate(212.47966893026341,107.84410940204702)"><text text-anchor="middle" dominant-baseline="text-before-edge" transform="translate(0,-5.599999904632568)"><tspan x="0" y="0" dy="0" style="font-family: Arial, sans-serif; font-size: 10px; fill: black; font-weight: bold;">Ermete Zacconi</tspan></text></g><g transform="translate(596.3450899422735,234.57926197537208)"><text text-anchor="middle" dominant-baseline="text-before-edge" transform="translate(0,-5.599999904632568)"><tspan x="0" y="0" dy="0" style="font-family: Arial, sans-serif; font-size: 10px; fill: black; font-weight: bold;">Gabriele Ferzetti</tspan></text></g><g transform="translate(316.9879781779023,53.59356107762642)"><text text-anchor="middle" dominant-baseline="text-before-edge" transform="translate(0,-5.599999904632568)"><tspan x="0" y="0" dy="0" style="font-family: Arial, sans-serif; font-size: 10px; fill: black; font-weight: bold;">Giuliano Ferrara</tspan></text></g><g transform="translate(316.9879781779023,480.46726122245695)"><text text-anchor="middle" dominant-baseline="text-before-edge" transform="translate(0,-5.599999904632568)"><tspan x="0" y="0" dy="0" style="font-family: Arial, sans-serif; font-size: 10px; fill: black; font-weight: bold;">Paola Pitagora</tspan></text></g><g transform="translate(596.3450899422735,375.7483580300484)"><text text-anchor="middle" dominant-baseline="text-before-edge" transform="translate(0,-5.599999904632568)"><tspan x="0" y="0" dy="0" style="font-family: Arial, sans-serif; font-size: 10px; fill: black; font-weight: bold;">Elena Sofia Ricci</tspan></text></g><g transform="translate(444.3817326853626,489.4311810410108)"><text text-anchor="middle" dominant-baseline="text-before-edge" transform="translate(0,-5.599999904632568)"><tspan x="0" y="0" dy="0" style="font-family: Arial, sans-serif; font-size: 10px; fill: black; font-weight: bold;">Lina Sastri</tspan></text></g><g transform="translate(444.3817326853626,44.6296412590726)"><text text-anchor="middle" dominant-baseline="text-before-edge" transform="translate(0,-5.599999904632568)"><tspan x="0" y="0" dy="0" style="font-family: Arial, sans-serif; font-size: 10px; fill: black; font-weight: bold;">Giorgio Strehler</tspan></text></g><g transform="translate(173.0903741450434,174.9560159868435)"><text text-anchor="middle" dominant-baseline="text-before-edge" transform="translate(0,-5.599999904632568)"><tspan x="0" y="0" dy="0" style="font-family: Arial, sans-serif; font-size: 10px; fill: black; font-weight: bold;">Moni Ovadia</tspan></text></g><g transform="translate(547.1371122366302,107.279049777539)"><text text-anchor="middle" dominant-baseline="text-before-edge" transform="translate(0,-5.599999904632568)"><tspan x="0" y="0" dy="0" style="font-family: Arial, sans-serif; font-size: 10px; fill: black; font-weight: bold;">Paola Senatore</tspan></text></g><g transform="translate(623.3927864976488,196.44586312270357)"><text text-anchor="middle" dominant-baseline="text-before-edge" transform="translate(0,-5.599999904632568)"><tspan x="0" y="0" dy="0" style="font-family: Arial, sans-serif; font-size: 10px; fill: black; font-weight: bold;">Cristina D'Avena</tspan></text></g><g transform="translate(177.81738678308992,359.0353794209544)"><text text-anchor="middle" dominant-baseline="text-before-edge" transform="translate(0,-5.599999904632568)"><tspan x="0" y="0" dy="0" style="font-family: Arial, sans-serif; font-size: 10px; fill: black; font-weight: bold;">Bruno Lauzi</tspan></text></g><g transform="translate(548.7544487654251,435.3449628377324)"><text text-anchor="middle" dominant-baseline="text-before-edge" transform="translate(0,-5.599999904632568)"><tspan x="0" y="0" dy="0" style="font-family: Arial, sans-serif; font-size: 10px; fill: black; font-weight: bold;">Bruno Maccallini</tspan></text></g><g transform="translate(139.0950117925465,332.83782854114696)"><text text-anchor="middle" dominant-baseline="text-before-edge" transform="translate(0,-5.599999904632568)"><tspan x="0" y="0" dy="0" style="font-family: Arial, sans-serif; font-size: 10px; fill: black; font-weight: bold;">Lilli Carati</tspan></text></g><g transform="translate(214.76879280879868,431.37951644087275)"><text text-anchor="middle" dominant-baseline="text-before-edge" transform="translate(0,-5.599999904632568)"><tspan x="0" y="0" dy="0" style="font-family: Arial, sans-serif; font-size: 10px; fill: black; font-weight: bold;">Paola Cortellesi</tspan></text></g><g transform="translate(239.5273654856387,69.71071054937849)"><text text-anchor="middle" dominant-baseline="text-before-edge" transform="translate(0,-5.599999904632568)"><tspan x="0" y="0" dy="0" style="font-family: Arial, sans-serif; font-size: 10px; fill: black; font-weight: bold;">Claudia Koll</tspan></text></g><g transform="translate(241.81648936417398,469.51291529354125)"><text text-anchor="middle" dominant-baseline="text-before-edge" transform="translate(0,-5.599999904632568)"><tspan x="0" y="0" dy="0" style="font-family: Arial, sans-serif; font-size: 10px; fill: black; font-weight: bold;">Enrico Montesano</tspan></text></g><g transform="translate(147.19256884098388,279.3519320295062)"><text text-anchor="middle" dominant-baseline="text-before-edge" transform="translate(0,-5.599999904632568)"><tspan x="0" y="0" dy="0" style="font-family: Arial, sans-serif; font-size: 10px; fill: black; font-weight: bold;">Luca Turco</tspan></text></g><g transform="translate(135.91653359440724,233.980299635175)"><text text-anchor="middle" dominant-baseline="text-before-edge" transform="translate(0,-5.599999904632568)"><tspan x="0" y="0" dy="0" style="font-family: Arial, sans-serif; font-size: 10px; fill: black; font-weight: bold;">Claudio Bisio</tspan></text></g><g transform="translate(490.93007310210555,48.98693416354624)"><text text-anchor="middle" dominant-baseline="text-before-edge" transform="translate(0,-5.599999904632568)"><tspan x="0" y="0" dy="0" style="font-family: Arial, sans-serif; font-size: 10px; fill: black; font-weight: bold;">Massimo Ghini</tspan></text></g><g transform="translate(490.9300731021055,485.0738881365372)"><text text-anchor="middle" dominant-baseline="text-before-edge" transform="translate(0,-5.599999904632568)"><tspan x="0" y="0" dy="0" style="font-family: Arial, sans-serif; font-size: 10px; fill: black; font-weight: bold;">Angela Finocchiaro</tspan></text></g><g transform="translate(630.000058583645,267.03041115004174)"><text text-anchor="middle" dominant-baseline="text-before-edge" transform="translate(0,-5.599999904632568)"><tspan x="0" y="0" dy="0" style="font-family: Arial, sans-serif; font-size: 10px; fill: black; font-weight: bold;">Corrado</tspan></text></g><g transform="translate(596.3450899422735,149.59787846108782)"><text text-anchor="middle" dominant-baseline="text-before-edge" transform="translate(0,-5.599999904632568)"><tspan x="0" y="0" dy="0" style="font-family: Arial, sans-serif; font-size: 10px; fill: black; font-weight: bold;">Paolo Volponi</tspan></text></g><g transform="translate(356.08086657881074,506.10863547350834)"><text text-anchor="middle" dominant-baseline="text-before-edge" transform="translate(0,-5.599999904632568)"><tspan x="0" y="0" dy="0" style="font-family: Arial, sans-serif; font-size: 10px; fill: black; font-weight: bold;">Giuliana Rancic</tspan></text></g><g transform="translate(356.08086657881074,27.95218682657506)"><text text-anchor="middle" dominant-baseline="text-before-edge" transform="translate(0,-5.599999904632568)"><tspan x="0" y="0" dy="0" style="font-family: Arial, sans-serif; font-size: 10px; fill: black; font-weight: bold;">Franco Bernard</tspan></text></g><g transform="translate(314.3283408890019,527.1433828104795)"><text text-anchor="middle" dominant-baseline="text-before-edge" transform="translate(0,-5.599999904632568)"><tspan x="0" y="0" dy="0" style="font-family: Arial, sans-serif; font-size: 10px; fill: black; font-weight: bold;">Giuseppe Amato</tspan></text></g></g></g></svg>